<svg height="40" viewBox="0 0 51 60" width="40" xmlns="http://www.w3.org/2000/svg"><g id="Page-1" fill="none" fill-rule="evenodd"><g id="056---Ground-Satellite" fill-rule="nonzero" transform="translate(0 -1)"><g id="Icons_copy" transform="translate(1 2)"><path id="Shape" d="m34 51-13 1.5-1.5-.17-11.5-1.33 3.92-16.81.36-1.55 20.6 12.11z" fill="#7facfa"/><path id="Shape" d="m31 51-11.5 1.33-11.5-1.33 3.92-16.81 17.96 10.56z" fill="#a4c2f7"/><path id="Shape" d="m47.76 41.32c-.47.47-1.52.45-2.99-.01h-.01c-4.26-1.32-12.1-6.32-19.9-13.86-.71-.69-1.43-1.39-2.14-2.1-.72-.72-1.42-1.43-2.1-2.14-9.87-10.21-15.38-20.47-14.01-22.72.03849143-.0659338.08556975-.12646306.14-.18 1.83-1.83 11.39 4.71 21.9 14.87l4.24 4.24c10.15 10.51 16.7 20.07 14.87 21.9z" fill="#e8edfc"/><path id="Shape" d="m44.77 41.31h-.01c-4.26-1.32-12.1-6.32-19.9-13.86-.71-.69-1.43-1.39-2.14-2.1-.72-.72-1.42-1.43-2.1-2.14-9.87-10.21-15.38-20.47-14.01-22.72 3.98 1.62 11.25 7.16 19.04 14.69l4.24 4.24c10.13 10.49 16.68 20.04 14.88 21.89z" fill="#fff"/><path id="Shape" d="m35.33 16.98-9.47 9.47-2.86-1.36-.13-.26-1.25-2.62 7.03-7.03 2.36-2.37.48.23 2.48 1.16z" fill="#cad9fc"/><path id="Shape" d="m32.71 15.53-9.47 9.47-.37-.17-1.25-2.62 7.03-7.03 2.36-2.37.48.23z" fill="#e8edfc"/><path id="Shape" d="m37.83 15.83c-1.5629061 1.5626528-4.0966511 1.5625158-5.6593883-.0003058-1.5627372-1.5628217-1.5627372-4.0965667 0-5.6593884 1.5627372-1.56282164 4.0964822-1.56295856 5.6593883-.0003058 1.5586857 1.5647363 1.5586857 4.0952637 0 5.66z" fill="#cad9fc"/><path id="Shape" d="m34.83 15.83c-.3799083.379465-.8321938.6787216-1.33.88-1.5124849-.6109052-2.5027003-2.0787993-2.5027003-3.71s.9902154-3.09909483 2.5027003-3.71c1.2450386.5028957 2.1548129 1.596773 2.4224061 2.912607.2675931 1.315834-.1426779 2.6781609-1.0924061 3.627393z" fill="#e8edfc"/><path id="Shape" d="m47.76 41.32c-4.7 4.7-16.45 6.02-28.18-2.2-2.0559738-1.4553187-3.9830651-3.0846476-5.76-4.87-11.33-11.33-12.47-23.79-9.27-30.7.53489249-1.20219678 1.27988802-2.29937202 2.2-3.24-1.83 1.83 4.71 11.39 14.87 21.9.68.71 1.38 1.42 2.1 2.14.71.71 1.43 1.41 2.14 2.1 4.34051 4.2769819 9.0079975 8.2089054 13.96 11.76.0051905.0057054.0123214.0092708.02.01 1.05.73 2.02 1.34 2.9 1.84 2.54 1.45 4.33 1.95 5.02 1.26z" fill="#cad9fc"/><path id="Shape" d="m42.74 40.06c-4.7 3.36-13.69 4.15-23.16-.94-2.0559738-1.4553187-3.9830651-3.0846476-5.76-4.87-11.33-11.33-11.02-26.34-7.82-33.25 2.48 4.15 5.8 12.63 11.86 18.9.68.71 1.38 1.42 2.1 2.14.71.71 1.43 1.41 2.14 2.1 6.99 6.75 13.57 11.91 17.72 14.07.0051905.0057054.0123214.0092708.02.01 1.05.73 2.02 1.34 2.9 1.84z" fill="#e8edfc"/><rect id="Rectangle-path" fill="#cad9fc" height="7" rx="2" width="42" y="51"/><rect id="Rectangle-path" fill="#e8edfc" height="7" rx="2" width="39" y="51"/></g><g id="Icons" fill="#fff" transform="translate(1 2)"><path id="Shape" d="m9.5529.656c-.02285649.05311789-.04170905.10787054-.0564.1638.01536775-.05572211.0342045-.11042884.0564-.1638z"/><path id="Shape" d="m11.92 34.19-3.92 16.81h3l3.92-16.81.36-1.55.0258.0152c-9.9058-10.8876-10.8058-22.518-7.7558-29.1052.34826546-.76163634.77682595-1.48392704 1.2784-2.1546.0569-.1326.1127-.2682.1716-.3954.0176.03.0364.0642.0541.0942.1722-.2141.3518-.414.5351-.6069-1.3787-.5564-2.3684-.6481-2.8392-.1773-.24586172.24873143-.47816407.51050971-.6959.7842-.0177-.03-.0365-.0642-.0541-.0942-.0589.1272-.1147.2628-.1716.3954-.50157405.67067296-.93013454 1.39296366-1.2784 2.1546-3.05 6.5872-2.15 18.2176 7.7558 29.1052l-.0258-.0152zm-5.4235-33.37c.01469095-.05592946.03354351-.11068211.0564-.1638-.0221955.05337116-.04103225.10807789-.0564.1638z"/><path id="Shape" d="m35.843 44.7282.037.0218.0523.2917c.8154206.0327902 1.6320194.02134 2.4462-.0343-.8493302-.0502964-1.6955761-.1434819-2.5355-.2792z"/><path id="Shape" d="m3 56v-3c.0032402-1.1032246.89677542-1.9967598 2-2h-3c-1.10322458.0032402-1.9967598.8967754-2 2v3c.0032402 1.1032246.89677542 1.9967598 2 2h3c-1.10322458-.0032402-1.9967598-.8967754-2-2z"/></g><g id="Layer_2"><path id="Shape" d="m41 61h-38c-1.65610033-.0018187-2.99818129-1.3438997-3-3v-3c.00181871-1.6561003 1.34389967-2.9981813 3-3h38c1.6561003.0018187 2.9981813 1.3438997 3 3v3c-.0018187 1.6561003-1.3438997 2.9981813-3 3zm-38-7c-.55214759.000331-.99966901.4478524-1 1v3c.00033099.5521476.44785241.999669 1 1h38c.5521476-.000331.999669-.4478524 1-1v-3c-.000331-.5521476-.4478524-.999669-1-1z" fill="#428dff"/><path id="Shape" d="m8.4547 3.0139c-1.35813568 1.4744027-2.32479227 3.26588913-2.8115 5.2105-.50196998 2.0019356-.70476884 4.0671613-.6018 6.1285.26150865 4.0140011 1.37327738 7.9265639 3.2616 11.4783 1.9094329 3.5790456 4.3440259 6.8520005 7.2228 9.71l-1.4142 1.4138c-3.0240398-3.0029315-5.58060776-6.4424195-7.5844-10.2037-2.02078297-3.8068339-3.20822043-8.0001578-3.4834-12.3013-.11363994-2.2722206.11217647-4.54868594.67-6.7543.57697457-2.2799798 1.72137855-4.37693574 3.3267-6.0957z" fill="#fff"/><g fill="#428dff"><path id="Shape" d="m5.1472 6.5353c.49859165.17963352 1.0535579-.03277463 1.3048-.4994.49144238-1.11357146 1.16866119-2.13546952 2.0027-3.022l-1.4142-1.4139c-1.00203017 1.05379128-1.81577481 2.27173612-2.4058 3.6008-.12766957.24226534-.14458506.52783959-.04640821.78348254.09817686.25564296.30189524.45648521.55890821.55101746z"/><path id="Shape" d="m14.1116 36.955 1.4142-1.4142c-2.8787741-2.8579995-5.3133671-6.1309544-7.2228-9.71-1.88826826-3.5516147-3.00003536-7.4640355-3.2616-11.4779-.02774732-.3178766-.03442858-.637241-.02-.956-.01297756-.5410732-.44672022-.9775825-.9877-.994-.26928684-.0064434-.52954717.0972521-.72061926.2871162-.1910721.1898641-.29641611.4494615-.29168074.7187838-.01420251.3471947-.0067213.6949374.0224 1.0412.27522162 4.3010398 1.46265786 8.4942571 3.4834 12.301 2.00376692 3.7613864 4.560336 7.200977 7.5844 10.204z"/><path id="Shape" d="m5.342 9.6092c.04705296-.24970427-.00414144-.50793323-.1429-.7208l-.122-.1471c-.04681964-.04892952-.09956018-.0918274-.157-.1277-.04930362-.04091205-.10418941-.07458432-.163-.1-.06176142-.02648049-.12523887-.04876441-.19-.0667-.25766443-.06079461-.52895446-.01530929-.7527.1262-.11051657.07839552-.20473217.17753586-.2774.2919-.24111679.34617076-.24322612.80532856-.0053 1.1537.08305773.1057702.18585948.19441.3027.261.11270818.0679501.23785846.1126927.3681.1316.25881746.0308367.51993435-.0346205.7336-.1839.19797853-.157312.34025314-.37400122.4059-.6182z"/><path id="Shape" d="m37.8047 48.0928c-6.99 0-15.6367-3.0811-23.6934-11.1377-.3820936-.3919029-.3781252-1.0181666.0089041-1.4051959s1.013293-.3909977 1.4051959-.0089041c8.0928 8.0918 24.333 15.2647 32.5273 7.0713.3919029-.3820936 1.0181666-.3781252 1.4051959.0089041s.3909977 1.013293.0089041 1.4051959c-2.4775 2.4775-6.6436 4.0664-11.6621 4.0664z"/><path id="Shape" d="m47.8936 44.6309c-1.3 0-3.4893-.7686-7.3926-3.4258-5.0942304-3.6211503-9.8884091-7.6468759-14.336-12.0381-.7158-.6874667-1.4339-1.3908-2.1543-2.11-.7186667-.7207333-1.4234-1.4401333-2.1142-2.1582-4.3899347-4.4470352-8.4146727-9.2403232-12.0352-14.3334-4.2793-6.2861-3.6592-8.1279-2.8203-8.9654.8369-.84 2.6787-1.459 8.9649 2.8213 5.0939965 3.62089799 9.8881253 7.6461416 14.3359 12.0367.2567846.2484068.36154.6149371.2748058.9615225-.0867343.3465854-.3517812.6205713-.6953.71875-.3435189.0981786-.7133212.0056343-.9701058-.2427725-11.9942-11.5908-19.376-15.4619-20.5157-14.8662-.5546 1.0889 3.3057 8.4824 14.9014 20.4814.6836.712 1.3799 1.4223 2.0889 2.1309s1.4179667 1.4036 2.1269 2.085c12.0039 11.6005 19.3838 15.457 20.52 14.87.5547-1.0879-3.3057-8.4815-14.9014-20.4815-.3840036-.3969547-.3735047-1.0300464.02345-1.41405s1.0300464-.3735047 1.41405.02345c4.3905626 4.4478066 8.4158063 9.241969 12.0367 14.336 4.2793 6.2852 3.66 8.127 2.8213 8.9659-.4153146.4149137-.9869093.6345482-1.5732.6045z"/><path id="Shape" d="m26.86 29.45c-.4044141-.0000459-.7689893-.2436722-.9237588-.6172993-.1547696-.373627-.069262-.8036936.2166588-1.0897007l9.47-9.47c.2515115-.2579685.6223472-.3606993.9707473-.2689214.3484.0917778.6204963.3638741.7122741.7122741.0917779.3484001-.0109529.7192358-.2689214.9707473l-9.47 9.47c-.1873155.1878023-.4417517.2932116-.707.2929z"/><path id="Shape" d="m22.62 25.21c-.4044398-.0000459-.7690329-.2437029-.9237859-.6173646s-.0691935-.8037505.2167859-1.0897354l9.3877-9.3984c.3912818-.3802342 1.0151263-.3766503 1.4020136.0080544.3868874.3847046.3940008 1.0085188.0159864 1.4019456l-9.3916 9.4025c-.1873109.1878823-.4417982.2933338-.7071.293z"/><path id="Shape" d="m48.02 20.9805c-.1303963.0003409-.2595619-.0252202-.38-.0752-.5106642-.2099022-.7545872-.7939474-.5449-1.3047.5996694-1.4595768.9071107-3.0226383.9049-4.6006-.0044677-6.62556552-5.3744345-11.99553227-12-12-1.5779883-.00208382-3.1410508.30549356-4.6006.9053-.5108634.2098682-1.0951318-.03413661-1.305-.545s.0341366-1.0951318.545-1.305c1.7006055-.69912557 3.5218966-1.05766911 5.3606-1.0553 7.7307746.00292499 13.997075 6.2692254 14 14 .0021637 1.8385282-.3565145 3.6596088-1.0557 5.36-.153493.3753525-.5187762.6205739-.9243.6205z"/><path id="Shape" d="m44.32 19.45c-.1292859.0002465-.2573552-.0249664-.3769-.0742-.2457869-.0996835-.4418019-.2930789-.5447832-.5375023-.1029813-.2444235-.1044625-.5197805-.0041168-.7652977.3991445-.9754032.6048931-2.0190897.6058-3.073-.0067183-4.4154922-3.5845078-7.99328173-8-8-1.0539578.00078577-2.097714.20643278-3.0732.6055-.3331239.14677331-.7196915.10093-1.0092463-.1196872s-.4363515-.58115412-.3832552-.94128563c.0530964-.36013151.2976974-.66296232.6386015-.79062717 1.2146673-.49734648 2.5145567-.75341156 3.8271-.7539 5.5199923.00688709 9.9931129 4.48000774 10 10-.0004884 1.3125433-.2565535 2.6124327-.7539 3.8271-.1531417.3767757-.5193909.6231169-.9261.6229z"/><path id="Shape" d="m36 20c-2.3860002.0005361-4.4400817-1.684528-4.9059636-4.0246031-.4658818-2.3400751.7862024-4.6833584 2.9904752-5.5966925 2.2042727-.91333408 4.7467573-.1423195 6.0724645 1.8414894 1.3257071 1.983809 1.0653752 4.6278436-.6217761 6.3150062-.9354486.9408551-2.208452 1.4683205-3.5352 1.4648zm0-8c-1.2132498.0001782-2.3069562.7311026-2.7712227 1.8520093s-.2076854 2.4111044.6501227 3.2690907c1.1872061 1.132777 3.0549939 1.132777 4.2422 0 .8578081-.8579863 1.1143892-2.148184.6501227-3.2690907s-1.5579729-1.8518311-2.7712227-1.8520093z"/><path id="Shape" d="m35 54h-26c-.30510016.0001894-.59356803-.1390256-.78324888-.377997-.18968086-.2389714-.25978652-.551509-.19035112-.848603l4.28-18.36c.1365944-.524631.6663477-.8448782 1.1943641-.7220188.5280163.1228595.8619767.6440766.7529359 1.1751188l-3.9937 17.1335h23.5447l-.9092-5.0732c-.0631646-.3516923.0660945-.7103672.3390867-.9409154.2729921-.2305483.6482433-.2979441.9844-.1768001.3361567.1211441.5821488.4124232.6453133.7641155l1.12 6.25c.0520658.2914505-.0275844.5909968-.2175338.8180947s-.4707017.3584382-.7667662.3587053z"/></g></g></g></g></svg>